<svg width="569" height="900" viewBox="0 0 569 900" fill="none" xmlns="http://www.w3.org/2000/svg">
<path d="M502.274 789.644C500.956 789.21 499.612 788.859 498.249 788.596C472.219 783.569 447.205 808.115 421.496 810.258C363.294 815.11 314.212 769.951 255.974 774.257C217.156 777.122 181.486 792.093 141.802 787.248C102.311 782.429 15.9284 753.712 14.8388 822.734C14.5432 841.428 26.1738 858.676 41.8217 868.257C112.942 911.806 183.524 835.331 252.631 829.926C292.402 826.812 330.567 848.119 366.154 862.868C397.662 875.924 434.59 885.223 468.865 881.627C491.636 879.238 518.064 863.451 526.49 841.329C533.977 821.679 522.452 796.283 502.274 789.644ZM214.167 846.455C206.431 850.092 198.848 855.018 194.72 862.498C182.194 885.193 211.23 900.34 229.744 899.994C253.042 899.994 276.391 899.366 299.687 898.962C307.459 898.827 315.751 898.505 322.103 894.029C330.772 887.922 331.412 880.381 327.885 872.908C308.82 832.507 248.968 830.091 214.167 846.455ZM555.416 519.343C543.995 470.918 495.526 502.567 470.142 520.176C425.213 551.34 372.657 563.563 318.212 563.029C279.991 562.655 242.139 556.48 204.802 548.734C162.06 539.861 126.753 526.227 92.2685 499.422C68.1913 480.708 35.0354 481.031 17.4363 508.081C-0.960073 536.347 10.7381 572.879 31.265 596.716C59.6237 629.649 108.141 646.82 148.22 660.763C218.76 685.304 296.356 697.036 370.736 686.9C422.873 679.797 480.288 661.246 520.175 624.924C539.71 607.132 554.404 584.256 557.706 557.663C558.864 548.335 558.636 533.032 555.418 519.365L555.416 519.343ZM533.514 687.695C519.708 672.12 491.559 675.973 473.968 680.929C446.178 688.757 420.694 703.417 392.594 710.18C363.464 717.193 334.137 714.2 305.679 705.642C266.056 693.725 222.252 696.769 181.099 689.527C137.086 681.781 100.061 654.222 62.3171 631.965C56.4302 628.493 50.4318 624.976 43.7871 623.373C3.32454 613.616 -8.60792 669.735 5.97236 696.491C21.1234 724.287 53.2352 743.589 81.8062 755.008C111.209 766.759 142.958 778.11 175.099 776.976C209.522 775.76 239.186 743.187 274.664 755.172C314.463 768.616 352.225 790.78 394.868 793.974C447.969 797.956 528.443 776.125 539.655 715.034C540.742 709.11 540.58 702.767 538.753 697.075C537.652 693.635 535.935 690.427 533.514 687.695ZM567.968 429.937C565.452 417.369 556.49 406.216 542.603 416.662C538.336 419.87 535.383 424.478 532.523 428.983L518.844 450.527C507.974 467.65 515.743 479.891 535.581 476.49C552.553 473.58 565.242 459.015 568.246 442.457C568.938 438.651 568.825 434.211 567.968 429.937ZM73.847 68.9099C74.2857 68.8439 74.7228 68.7748 75.1536 68.7041C153.851 55.8539 234.295 52.2423 313.693 60.2666C353.957 64.3354 393.936 71.4202 433.033 81.8764C452.59 87.1076 471.892 93.1907 490.939 100.126C507.1 106.028 525.158 117.386 542.166 119.96H542.194C550.685 121.242 558.974 119.056 561.544 109.74C562.816 105.125 562.231 100.204 561.229 95.5215C552.724 55.535 516.482 32.3072 479.225 22.4732C351.077 -11.3176 210.405 -5.17525 82.9068 28.6893C73.1112 31.2986 59.9161 37.3939 53.8752 45.7606C42.5371 61.4605 60.1001 70.9977 73.847 68.9099ZM503.743 174.511C499.45 180.08 495.196 186.153 494.485 193.145C492.565 211.997 523.834 218.07 537.271 218.123C547.003 218.167 557.328 214.271 562.412 205.978C567.235 198.105 567.707 187.195 565.492 176.676C563.264 166.103 558.323 155.929 552.364 149.632C530.881 126.945 514.999 159.908 503.743 174.511ZM134.154 350.482C165.074 370.505 214.128 382.253 245.114 356.317C308.289 303.433 215.345 245.586 231.152 188.313C234.576 175.903 243.957 165.741 255.031 159.169C281.367 143.539 317.25 142.31 346.574 147.911C373.025 152.963 399.209 159.273 425.367 165.653C441.719 169.641 458.284 177.397 475.158 178.614C484.592 179.295 494.623 177.179 501.658 170.86C526.578 148.478 493.831 119.73 474.38 111.036C396.654 76.3011 312.168 60.7866 227.227 61.4605C163.862 61.9617 78.4241 63.5279 43.8044 127.317C24.2115 163.423 27.8986 206.52 43.3751 243.374C61.8391 287.35 97.4934 326.739 134.154 350.482ZM166.989 520.537C211.574 533.629 259.798 543.584 306.24 546.118C357.995 548.946 410.486 536.914 453.59 507.541C493.194 480.555 519.96 439.315 539.385 396.188C546.989 379.309 551.905 361.597 553.66 343.766C556.404 315.876 551.413 287.695 536.87 261.951C502.49 201.088 428.536 185.252 366.506 168.037C324.38 156.348 247.542 150.707 253.383 216.788C254.719 231.918 261.009 246.111 267.259 259.957C281.337 291.145 296.504 332.377 270.378 361.754C262.988 370.059 252.394 374.792 241.762 378.057C188.47 394.415 129.207 374.839 90.0924 336.411C74.4178 321.016 37.0417 281.115 20.4552 318.212C16.9253 326.108 16.5731 335.035 16.9237 343.674C20.3813 428.858 87.7449 497.268 166.989 520.537Z" fill="#D9D9D9"/>
</svg>
